<svg width="91" height="164" viewBox="0 0 91 164" fill="none" xmlns="http://www.w3.org/2000/svg">
<path d="M12.5977 0C19.3685 0 22.6888 3.25521 22.5586 9.76562L21.582 67.5781C29.7201 60.026 40.5599 56.25 54.1016 56.25C78.5156 56.3151 90.5924 71.1589 90.332 100.781L89.9414 150.293C89.8763 158.171 86.7513 162.37 80.5664 162.891C73.6003 163.477 70.1497 159.863 70.2148 152.051L70.5078 105.273C70.638 87.9557 65.4297 78.8737 54.8828 78.0273C42.8385 76.9857 31.7383 82.5521 21.582 94.7266L19.4336 151.074C19.1732 158.171 15.5924 161.654 8.69141 161.523C2.89714 161.393 0.0651042 157.845 0.195312 150.879L3.41797 9.17969C3.54818 3.1901 6.60807 0.130208 12.5977 0Z" fill="black"/>
</svg>
