<svg width="138" height="113" viewBox="0 0 138 113" fill="none" xmlns="http://www.w3.org/2000/svg">
<path d="M11.7188 0C18.4896 0 21.8099 3.22266 21.6797 9.66797L21.582 13.6719C27.3763 8.46354 34.4401 5.82682 42.7734 5.76172C56.3151 5.63151 65.4622 10.4167 70.2148 20.1172C76.8555 10.4818 86.849 5.69661 100.195 5.76172C124.87 5.82682 136.979 20.6706 136.523 50.293L135.742 98.8281C135.612 106.706 132.487 110.905 126.367 111.426C119.336 112.077 115.885 108.464 116.016 100.586L116.602 55.5664C116.862 36.2956 111.849 26.5299 101.562 26.2695C89.6484 25.944 81.543 31.3802 77.2461 42.5781C77.0508 42.7734 76.9206 44.7591 76.8555 48.5352L75.6836 97.4609C75.4883 105.339 72.3633 109.538 66.3086 110.059C59.6029 110.645 56.3477 107.031 56.543 99.2188L57.5195 54.3945C57.9102 35.8398 53.0924 26.3997 43.0664 26.0742C31.8034 25.6836 24.4141 32.2591 20.8984 45.8008L19.2383 99.8047C19.043 106.901 15.5599 110.384 8.78906 110.254C2.92969 110.124 0.0976562 106.576 0.292969 99.6094L2.53906 9.08203C2.66927 3.02734 5.72917 0 11.7188 0Z" fill="black"/>
</svg>
